<?xml version="1.0" encoding="utf-8" standalone="no"?>
<!DOCTYPE svg PUBLIC "-//W3C//DTD SVG 1.1//EN"
  "http://www.w3.org/Graphics/SVG/1.1/DTD/svg11.dtd">
<svg xmlns:xlink="http://www.w3.org/1999/xlink" width="432pt" height="324pt" viewBox="0 0 432 324" xmlns="http://www.w3.org/2000/svg" version="1.1">
 <metadata>
  <rdf:RDF xmlns:dc="http://purl.org/dc/elements/1.1/" xmlns:cc="http://creativecommons.org/ns#" xmlns:rdf="http://www.w3.org/1999/02/22-rdf-syntax-ns#">
   <cc:Work>
    <dc:type rdf:resource="http://purl.org/dc/dcmitype/StillImage"/>
    <dc:date>2025-04-27T21:25:39.922341</dc:date>
    <dc:format>image/svg+xml</dc:format>
    <dc:creator>
     <cc:Agent>
      <dc:title>Matplotlib v3.10.0, https://matplotlib.org/</dc:title>
     </cc:Agent>
    </dc:creator>
   </cc:Work>
  </rdf:RDF>
 </metadata>
 <defs>
  <style type="text/css">*{stroke-linejoin: round; stroke-linecap: butt}</style>
 </defs>
 <g id="figure_1">
  <g id="patch_1">
   <path d="M 0 324 
L 432 324 
L 432 0 
L 0 0 
z
" style="fill: #ffffff"/>
  </g>
  <g id="axes_1">
   <g id="patch_2">
    <path d="M 62.09 276.04 
L 421.2 276.04 
L 421.2 10.8 
L 62.09 10.8 
z
" style="fill: #ffffff"/>
   </g>
   <g id="PathCollection_1">
    <defs>
     <path id="mc2c1f43f2d" d="M 0 3 
C 0.795609 3 1.55874 2.683901 2.12132 2.12132 
C 2.683901 1.55874 3 0.795609 3 0 
C 3 -0.795609 2.683901 -1.55874 2.12132 -2.12132 
C 1.55874 -2.683901 0.795609 -3 0 -3 
C -0.795609 -3 -1.55874 -2.683901 -2.12132 -2.12132 
C -2.683901 -1.55874 -3 -0.795609 -3 0 
C -3 0.795609 -2.683901 1.55874 -2.12132 2.12132 
C -1.55874 2.683901 -0.795609 3 0 3 
z
" style="stroke: #ff0000"/>
    </defs>
    <g clip-path="url(#p4659c57853)">
     <use xlink:href="#mc2c1f43f2d" x="376.008804" y="166.531264" style="fill: #ff0000; stroke: #ff0000"/>
     <use xlink:href="#mc2c1f43f2d" x="202.813749" y="165.876067" style="fill: #ff0000; stroke: #ff0000"/>
     <use xlink:href="#mc2c1f43f2d" x="273.415915" y="202.783574" style="fill: #ff0000; stroke: #ff0000"/>
     <use xlink:href="#mc2c1f43f2d" x="375.829981" y="114.45323" style="fill: #ff0000; stroke: #ff0000"/>
     <use xlink:href="#mc2c1f43f2d" x="283.202301" y="218.499252" style="fill: #ff0000; stroke: #ff0000"/>
     <use xlink:href="#mc2c1f43f2d" x="204.882517" y="134.246245" style="fill: #ff0000; stroke: #ff0000"/>
     <use xlink:href="#mc2c1f43f2d" x="344.142689" y="136.612113" style="fill: #ff0000; stroke: #ff0000"/>
     <use xlink:href="#mc2c1f43f2d" x="184.962598" y="117.973353" style="fill: #ff0000; stroke: #ff0000"/>
     <use xlink:href="#mc2c1f43f2d" x="367.098413" y="185.860753" style="fill: #ff0000; stroke: #ff0000"/>
     <use xlink:href="#mc2c1f43f2d" x="326.928907" y="218.005846" style="fill: #ff0000; stroke: #ff0000"/>
     <use xlink:href="#mc2c1f43f2d" x="244.209252" y="177.479529" style="fill: #ff0000; stroke: #ff0000"/>
     <use xlink:href="#mc2c1f43f2d" x="263.489191" y="196.872579" style="fill: #ff0000; stroke: #ff0000"/>
     <use xlink:href="#mc2c1f43f2d" x="381.297754" y="164.816241" style="fill: #ff0000; stroke: #ff0000"/>
     <use xlink:href="#mc2c1f43f2d" x="360.423664" y="150.450617" style="fill: #ff0000; stroke: #ff0000"/>
     <use xlink:href="#mc2c1f43f2d" x="325.599384" y="170.863672" style="fill: #ff0000; stroke: #ff0000"/>
     <use xlink:href="#mc2c1f43f2d" x="245.045594" y="173.847249" style="fill: #ff0000; stroke: #ff0000"/>
     <use xlink:href="#mc2c1f43f2d" x="291.499694" y="239.278732" style="fill: #ff0000; stroke: #ff0000"/>
     <use xlink:href="#mc2c1f43f2d" x="356.050457" y="163.945827" style="fill: #ff0000; stroke: #ff0000"/>
     <use xlink:href="#mc2c1f43f2d" x="240.690254" y="187.010014" style="fill: #ff0000; stroke: #ff0000"/>
     <use xlink:href="#mc2c1f43f2d" x="212.699664" y="121.481901" style="fill: #ff0000; stroke: #ff0000"/>
     <use xlink:href="#mc2c1f43f2d" x="221.675981" y="144.958179" style="fill: #ff0000; stroke: #ff0000"/>
     <use xlink:href="#mc2c1f43f2d" x="186.903008" y="148.928743" style="fill: #ff0000; stroke: #ff0000"/>
     <use xlink:href="#mc2c1f43f2d" x="289.078477" y="209.137698" style="fill: #ff0000; stroke: #ff0000"/>
     <use xlink:href="#mc2c1f43f2d" x="258.42826" y="192.076722" style="fill: #ff0000; stroke: #ff0000"/>
     <use xlink:href="#mc2c1f43f2d" x="319.30083" y="163.650139" style="fill: #ff0000; stroke: #ff0000"/>
     <use xlink:href="#mc2c1f43f2d" x="176.771337" y="180.400812" style="fill: #ff0000; stroke: #ff0000"/>
     <use xlink:href="#mc2c1f43f2d" x="222.805325" y="151.305112" style="fill: #ff0000; stroke: #ff0000"/>
     <use xlink:href="#mc2c1f43f2d" x="198.671767" y="121.827561" style="fill: #ff0000; stroke: #ff0000"/>
     <use xlink:href="#mc2c1f43f2d" x="223.748457" y="170.312341" style="fill: #ff0000; stroke: #ff0000"/>
     <use xlink:href="#mc2c1f43f2d" x="217.376115" y="191.044481" style="fill: #ff0000; stroke: #ff0000"/>
     <use xlink:href="#mc2c1f43f2d" x="264.223019" y="221.945026" style="fill: #ff0000; stroke: #ff0000"/>
     <use xlink:href="#mc2c1f43f2d" x="294.590689" y="190.218349" style="fill: #ff0000; stroke: #ff0000"/>
     <use xlink:href="#mc2c1f43f2d" x="333.799423" y="209.439104" style="fill: #ff0000; stroke: #ff0000"/>
     <use xlink:href="#mc2c1f43f2d" x="381.197088" y="214.580707" style="fill: #ff0000; stroke: #ff0000"/>
     <use xlink:href="#mc2c1f43f2d" x="368.656651" y="154.069529" style="fill: #ff0000; stroke: #ff0000"/>
     <use xlink:href="#mc2c1f43f2d" x="378.456836" y="129.093032" style="fill: #ff0000; stroke: #ff0000"/>
     <use xlink:href="#mc2c1f43f2d" x="235.574194" y="213.014852" style="fill: #ff0000; stroke: #ff0000"/>
     <use xlink:href="#mc2c1f43f2d" x="346.013444" y="129.384188" style="fill: #ff0000; stroke: #ff0000"/>
     <use xlink:href="#mc2c1f43f2d" x="258.174825" y="196.009424" style="fill: #ff0000; stroke: #ff0000"/>
     <use xlink:href="#mc2c1f43f2d" x="309.976242" y="199.233546" style="fill: #ff0000; stroke: #ff0000"/>
     <use xlink:href="#mc2c1f43f2d" x="310.165281" y="178.344136" style="fill: #ff0000; stroke: #ff0000"/>
     <use xlink:href="#mc2c1f43f2d" x="209.204526" y="155.229119" style="fill: #ff0000; stroke: #ff0000"/>
     <use xlink:href="#mc2c1f43f2d" x="222.956402" y="168.132049" style="fill: #ff0000; stroke: #ff0000"/>
     <use xlink:href="#mc2c1f43f2d" x="341.521013" y="177.985953" style="fill: #ff0000; stroke: #ff0000"/>
     <use xlink:href="#mc2c1f43f2d" x="247.726547" y="171.756939" style="fill: #ff0000; stroke: #ff0000"/>
     <use xlink:href="#mc2c1f43f2d" x="340.29664" y="194.367829" style="fill: #ff0000; stroke: #ff0000"/>
     <use xlink:href="#mc2c1f43f2d" x="317.08254" y="222.622129" style="fill: #ff0000; stroke: #ff0000"/>
     <use xlink:href="#mc2c1f43f2d" x="342.838486" y="119.92065" style="fill: #ff0000; stroke: #ff0000"/>
     <use xlink:href="#mc2c1f43f2d" x="224.661612" y="211.106302" style="fill: #ff0000; stroke: #ff0000"/>
     <use xlink:href="#mc2c1f43f2d" x="283.261336" y="193.993525" style="fill: #ff0000; stroke: #ff0000"/>
    </g>
   </g>
   <g id="PathCollection_2">
    <defs>
     <path id="m7c71150a2f" d="M -3 3 
L 3 -3 
M -3 -3 
L 3 3 
" style="stroke: #0000ff; stroke-width: 1.5"/>
    </defs>
    <g clip-path="url(#p4659c57853)">
     <use xlink:href="#m7c71150a2f" x="209.735918" y="90.565448" style="fill: #0000ff; stroke: #0000ff; stroke-width: 1.5"/>
     <use xlink:href="#m7c71150a2f" x="277.641139" y="168.701068" style="fill: #0000ff; stroke: #0000ff; stroke-width: 1.5"/>
     <use xlink:href="#m7c71150a2f" x="252.678532" y="138.321746" style="fill: #0000ff; stroke: #0000ff; stroke-width: 1.5"/>
     <use xlink:href="#m7c71150a2f" x="305.007586" y="75.056427" style="fill: #0000ff; stroke: #0000ff; stroke-width: 1.5"/>
     <use xlink:href="#m7c71150a2f" x="244.507789" y="122.912117" style="fill: #0000ff; stroke: #0000ff; stroke-width: 1.5"/>
     <use xlink:href="#m7c71150a2f" x="177.963578" y="80.806907" style="fill: #0000ff; stroke: #0000ff; stroke-width: 1.5"/>
     <use xlink:href="#m7c71150a2f" x="231.255167" y="72.466463" style="fill: #0000ff; stroke: #0000ff; stroke-width: 1.5"/>
     <use xlink:href="#m7c71150a2f" x="231.499598" y="102.567885" style="fill: #0000ff; stroke: #0000ff; stroke-width: 1.5"/>
     <use xlink:href="#m7c71150a2f" x="188.290862" y="105.874856" style="fill: #0000ff; stroke: #0000ff; stroke-width: 1.5"/>
     <use xlink:href="#m7c71150a2f" x="300.058907" y="122.480505" style="fill: #0000ff; stroke: #0000ff; stroke-width: 1.5"/>
     <use xlink:href="#m7c71150a2f" x="159.569286" y="114.809626" style="fill: #0000ff; stroke: #0000ff; stroke-width: 1.5"/>
     <use xlink:href="#m7c71150a2f" x="261.841557" y="107.777875" style="fill: #0000ff; stroke: #0000ff; stroke-width: 1.5"/>
     <use xlink:href="#m7c71150a2f" x="154.699144" y="172.648203" style="fill: #0000ff; stroke: #0000ff; stroke-width: 1.5"/>
     <use xlink:href="#m7c71150a2f" x="147.630111" y="191.287716" style="fill: #0000ff; stroke: #0000ff; stroke-width: 1.5"/>
     <use xlink:href="#m7c71150a2f" x="255.564227" y="140.153409" style="fill: #0000ff; stroke: #0000ff; stroke-width: 1.5"/>
     <use xlink:href="#m7c71150a2f" x="193.382436" y="89.450586" style="fill: #0000ff; stroke: #0000ff; stroke-width: 1.5"/>
     <use xlink:href="#m7c71150a2f" x="217.120165" y="89.562515" style="fill: #0000ff; stroke: #0000ff; stroke-width: 1.5"/>
     <use xlink:href="#m7c71150a2f" x="328.519033" y="166.45126" style="fill: #0000ff; stroke: #0000ff; stroke-width: 1.5"/>
     <use xlink:href="#m7c71150a2f" x="137.29332" y="159.707625" style="fill: #0000ff; stroke: #0000ff; stroke-width: 1.5"/>
     <use xlink:href="#m7c71150a2f" x="121.851623" y="153.083683" style="fill: #0000ff; stroke: #0000ff; stroke-width: 1.5"/>
     <use xlink:href="#m7c71150a2f" x="289.140802" y="135.35267" style="fill: #0000ff; stroke: #0000ff; stroke-width: 1.5"/>
     <use xlink:href="#m7c71150a2f" x="281.537477" y="61.289462" style="fill: #0000ff; stroke: #0000ff; stroke-width: 1.5"/>
     <use xlink:href="#m7c71150a2f" x="261.22661" y="47.561268" style="fill: #0000ff; stroke: #0000ff; stroke-width: 1.5"/>
     <use xlink:href="#m7c71150a2f" x="177.778024" y="109.543213" style="fill: #0000ff; stroke: #0000ff; stroke-width: 1.5"/>
     <use xlink:href="#m7c71150a2f" x="125.442428" y="151.227834" style="fill: #0000ff; stroke: #0000ff; stroke-width: 1.5"/>
     <use xlink:href="#m7c71150a2f" x="269.027372" y="151.82661" style="fill: #0000ff; stroke: #0000ff; stroke-width: 1.5"/>
     <use xlink:href="#m7c71150a2f" x="264.797606" y="130.250794" style="fill: #0000ff; stroke: #0000ff; stroke-width: 1.5"/>
     <use xlink:href="#m7c71150a2f" x="166.237534" y="113.232211" style="fill: #0000ff; stroke: #0000ff; stroke-width: 1.5"/>
     <use xlink:href="#m7c71150a2f" x="232.846538" y="142.05336" style="fill: #0000ff; stroke: #0000ff; stroke-width: 1.5"/>
     <use xlink:href="#m7c71150a2f" x="249.370577" y="90.857908" style="fill: #0000ff; stroke: #0000ff; stroke-width: 1.5"/>
     <use xlink:href="#m7c71150a2f" x="189.525519" y="144.632919" style="fill: #0000ff; stroke: #0000ff; stroke-width: 1.5"/>
     <use xlink:href="#m7c71150a2f" x="225.038571" y="65.921866" style="fill: #0000ff; stroke: #0000ff; stroke-width: 1.5"/>
     <use xlink:href="#m7c71150a2f" x="258.0114" y="107.662342" style="fill: #0000ff; stroke: #0000ff; stroke-width: 1.5"/>
     <use xlink:href="#m7c71150a2f" x="177.505001" y="90.129797" style="fill: #0000ff; stroke: #0000ff; stroke-width: 1.5"/>
     <use xlink:href="#m7c71150a2f" x="195.391969" y="92.433008" style="fill: #0000ff; stroke: #0000ff; stroke-width: 1.5"/>
     <use xlink:href="#m7c71150a2f" x="266.624591" y="120.737189" style="fill: #0000ff; stroke: #0000ff; stroke-width: 1.5"/>
     <use xlink:href="#m7c71150a2f" x="226.826923" y="100.663728" style="fill: #0000ff; stroke: #0000ff; stroke-width: 1.5"/>
     <use xlink:href="#m7c71150a2f" x="131.39737" y="96.695078" style="fill: #0000ff; stroke: #0000ff; stroke-width: 1.5"/>
     <use xlink:href="#m7c71150a2f" x="136.802387" y="157.801609" style="fill: #0000ff; stroke: #0000ff; stroke-width: 1.5"/>
     <use xlink:href="#m7c71150a2f" x="234.878743" y="81.101701" style="fill: #0000ff; stroke: #0000ff; stroke-width: 1.5"/>
     <use xlink:href="#m7c71150a2f" x="196.223337" y="71.571751" style="fill: #0000ff; stroke: #0000ff; stroke-width: 1.5"/>
     <use xlink:href="#m7c71150a2f" x="162.384081" y="85.575271" style="fill: #0000ff; stroke: #0000ff; stroke-width: 1.5"/>
     <use xlink:href="#m7c71150a2f" x="137.35415" y="125.970484" style="fill: #0000ff; stroke: #0000ff; stroke-width: 1.5"/>
     <use xlink:href="#m7c71150a2f" x="133.109442" y="196.681087" style="fill: #0000ff; stroke: #0000ff; stroke-width: 1.5"/>
     <use xlink:href="#m7c71150a2f" x="265.747943" y="142.425926" style="fill: #0000ff; stroke: #0000ff; stroke-width: 1.5"/>
     <use xlink:href="#m7c71150a2f" x="141.637324" y="116.708378" style="fill: #0000ff; stroke: #0000ff; stroke-width: 1.5"/>
     <use xlink:href="#m7c71150a2f" x="231.292231" y="105.339979" style="fill: #0000ff; stroke: #0000ff; stroke-width: 1.5"/>
     <use xlink:href="#m7c71150a2f" x="300.615718" y="119.134925" style="fill: #0000ff; stroke: #0000ff; stroke-width: 1.5"/>
     <use xlink:href="#m7c71150a2f" x="101.992246" y="132.022998" style="fill: #0000ff; stroke: #0000ff; stroke-width: 1.5"/>
     <use xlink:href="#m7c71150a2f" x="103.722623" y="149.592329" style="fill: #0000ff; stroke: #0000ff; stroke-width: 1.5"/>
    </g>
   </g>
   <g id="PathCollection_3">
    <defs>
     <path id="C0_0_922832b466" d="M 0 5 
C 1.326016 5 2.597899 4.473168 3.535534 3.535534 
C 4.473168 2.597899 5 1.326016 5 -0 
C 5 -1.326016 4.473168 -2.597899 3.535534 -3.535534 
C 2.597899 -4.473168 1.326016 -5 0 -5 
C -1.326016 -5 -2.597899 -4.473168 -3.535534 -3.535534 
C -4.473168 -2.597899 -5 -1.326016 -5 0 
C -5 1.326016 -4.473168 2.597899 -3.535534 3.535534 
C -2.597899 4.473168 -1.326016 5 0 5 
z
"/>
    </defs>
    <g clip-path="url(#p4659c57853)">
     <use xlink:href="#C0_0_922832b466" x="277.641139" y="168.701068" style="fill: none; stroke: #000000; stroke-width: 2"/>
    </g>
    <g clip-path="url(#p4659c57853)">
     <use xlink:href="#C0_0_922832b466" x="252.678532" y="138.321746" style="fill: none; stroke: #000000; stroke-width: 2"/>
    </g>
    <g clip-path="url(#p4659c57853)">
     <use xlink:href="#C0_0_922832b466" x="204.882517" y="134.246245" style="fill: none; stroke: #000000; stroke-width: 2"/>
    </g>
    <g clip-path="url(#p4659c57853)">
     <use xlink:href="#C0_0_922832b466" x="184.962598" y="117.973353" style="fill: none; stroke: #000000; stroke-width: 2"/>
    </g>
    <g clip-path="url(#p4659c57853)">
     <use xlink:href="#C0_0_922832b466" x="244.507789" y="122.912117" style="fill: none; stroke: #000000; stroke-width: 2"/>
    </g>
    <g clip-path="url(#p4659c57853)">
     <use xlink:href="#C0_0_922832b466" x="188.290862" y="105.874856" style="fill: none; stroke: #000000; stroke-width: 2"/>
    </g>
    <g clip-path="url(#p4659c57853)">
     <use xlink:href="#C0_0_922832b466" x="154.699144" y="172.648203" style="fill: none; stroke: #000000; stroke-width: 2"/>
    </g>
    <g clip-path="url(#p4659c57853)">
     <use xlink:href="#C0_0_922832b466" x="147.630111" y="191.287716" style="fill: none; stroke: #000000; stroke-width: 2"/>
    </g>
    <g clip-path="url(#p4659c57853)">
     <use xlink:href="#C0_0_922832b466" x="255.564227" y="140.153409" style="fill: none; stroke: #000000; stroke-width: 2"/>
    </g>
    <g clip-path="url(#p4659c57853)">
     <use xlink:href="#C0_0_922832b466" x="245.045594" y="173.847249" style="fill: none; stroke: #000000; stroke-width: 2"/>
    </g>
    <g clip-path="url(#p4659c57853)">
     <use xlink:href="#C0_0_922832b466" x="212.699664" y="121.481901" style="fill: none; stroke: #000000; stroke-width: 2"/>
    </g>
    <g clip-path="url(#p4659c57853)">
     <use xlink:href="#C0_0_922832b466" x="221.675981" y="144.958179" style="fill: none; stroke: #000000; stroke-width: 2"/>
    </g>
    <g clip-path="url(#p4659c57853)">
     <use xlink:href="#C0_0_922832b466" x="186.903008" y="148.928743" style="fill: none; stroke: #000000; stroke-width: 2"/>
    </g>
    <g clip-path="url(#p4659c57853)">
     <use xlink:href="#C0_0_922832b466" x="328.519033" y="166.45126" style="fill: none; stroke: #000000; stroke-width: 2"/>
    </g>
    <g clip-path="url(#p4659c57853)">
     <use xlink:href="#C0_0_922832b466" x="177.778024" y="109.543213" style="fill: none; stroke: #000000; stroke-width: 2"/>
    </g>
    <g clip-path="url(#p4659c57853)">
     <use xlink:href="#C0_0_922832b466" x="269.027372" y="151.82661" style="fill: none; stroke: #000000; stroke-width: 2"/>
    </g>
    <g clip-path="url(#p4659c57853)">
     <use xlink:href="#C0_0_922832b466" x="319.30083" y="163.650139" style="fill: none; stroke: #000000; stroke-width: 2"/>
    </g>
    <g clip-path="url(#p4659c57853)">
     <use xlink:href="#C0_0_922832b466" x="176.771337" y="180.400812" style="fill: none; stroke: #000000; stroke-width: 2"/>
    </g>
    <g clip-path="url(#p4659c57853)">
     <use xlink:href="#C0_0_922832b466" x="166.237534" y="113.232211" style="fill: none; stroke: #000000; stroke-width: 2"/>
    </g>
    <g clip-path="url(#p4659c57853)">
     <use xlink:href="#C0_0_922832b466" x="232.846538" y="142.05336" style="fill: none; stroke: #000000; stroke-width: 2"/>
    </g>
    <g clip-path="url(#p4659c57853)">
     <use xlink:href="#C0_0_922832b466" x="222.805325" y="151.305112" style="fill: none; stroke: #000000; stroke-width: 2"/>
    </g>
    <g clip-path="url(#p4659c57853)">
     <use xlink:href="#C0_0_922832b466" x="189.525519" y="144.632919" style="fill: none; stroke: #000000; stroke-width: 2"/>
    </g>
    <g clip-path="url(#p4659c57853)">
     <use xlink:href="#C0_0_922832b466" x="198.671767" y="121.827561" style="fill: none; stroke: #000000; stroke-width: 2"/>
    </g>
    <g clip-path="url(#p4659c57853)">
     <use xlink:href="#C0_0_922832b466" x="310.165281" y="178.344136" style="fill: none; stroke: #000000; stroke-width: 2"/>
    </g>
    <g clip-path="url(#p4659c57853)">
     <use xlink:href="#C0_0_922832b466" x="209.204526" y="155.229119" style="fill: none; stroke: #000000; stroke-width: 2"/>
    </g>
    <g clip-path="url(#p4659c57853)">
     <use xlink:href="#C0_0_922832b466" x="265.747943" y="142.425926" style="fill: none; stroke: #000000; stroke-width: 2"/>
    </g>
    <g clip-path="url(#p4659c57853)">
     <use xlink:href="#C0_0_922832b466" x="247.726547" y="171.756939" style="fill: none; stroke: #000000; stroke-width: 2"/>
    </g>
    <g clip-path="url(#p4659c57853)">
     <use xlink:href="#C0_0_922832b466" x="342.838486" y="119.92065" style="fill: none; stroke: #000000; stroke-width: 2"/>
    </g>
   </g>
   <g id="matplotlib.axis_1">
    <g id="xtick_1">
     <g id="line2d_1">
      <defs>
       <path id="m163d15edc1" d="M 0 0 
L 0 3.5 
" style="stroke: #000000; stroke-width: 0.8"/>
      </defs>
      <g>
       <use xlink:href="#m163d15edc1" x="87.507758" y="276.04" style="stroke: #000000; stroke-width: 0.8"/>
      </g>
     </g>
     <g id="text_1">
      <!-- −1.5 -->
      <g transform="translate(75.366352 290.638438) scale(0.1 -0.1)">
       <defs>
        <path id="DejaVuSans-2212" d="M 678 2272 
L 4684 2272 
L 4684 1741 
L 678 1741 
L 678 2272 
z
" transform="scale(0.015625)"/>
        <path id="DejaVuSans-31" d="M 794 531 
L 1825 531 
L 1825 4091 
L 703 3866 
L 703 4441 
L 1819 4666 
L 2450 4666 
L 2450 531 
L 3481 531 
L 3481 0 
L 794 0 
L 794 531 
z
" transform="scale(0.015625)"/>
        <path id="DejaVuSans-2e" d="M 684 794 
L 1344 794 
L 1344 0 
L 684 0 
L 684 794 
z
" transform="scale(0.015625)"/>
        <path id="DejaVuSans-35" d="M 691 4666 
L 3169 4666 
L 3169 4134 
L 1269 4134 
L 1269 2991 
Q 1406 3038 1543 3061 
Q 1681 3084 1819 3084 
Q 2600 3084 3056 2656 
Q 3513 2228 3513 1497 
Q 3513 744 3044 326 
Q 2575 -91 1722 -91 
Q 1428 -91 1123 -41 
Q 819 9 494 109 
L 494 744 
Q 775 591 1075 516 
Q 1375 441 1709 441 
Q 2250 441 2565 725 
Q 2881 1009 2881 1497 
Q 2881 1984 2565 2268 
Q 2250 2553 1709 2553 
Q 1456 2553 1204 2497 
Q 953 2441 691 2322 
L 691 4666 
z
" transform="scale(0.015625)"/>
       </defs>
       <use xlink:href="#DejaVuSans-2212"/>
       <use xlink:href="#DejaVuSans-31" transform="translate(83.789062 0)"/>
       <use xlink:href="#DejaVuSans-2e" transform="translate(147.412109 0)"/>
       <use xlink:href="#DejaVuSans-35" transform="translate(179.199219 0)"/>
      </g>
     </g>
    </g>
    <g id="xtick_2">
     <g id="line2d_2">
      <g>
       <use xlink:href="#m163d15edc1" x="127.410004" y="276.04" style="stroke: #000000; stroke-width: 0.8"/>
      </g>
     </g>
     <g id="text_2">
      <!-- −1.0 -->
      <g transform="translate(115.268598 290.638438) scale(0.1 -0.1)">
       <defs>
        <path id="DejaVuSans-30" d="M 2034 4250 
Q 1547 4250 1301 3770 
Q 1056 3291 1056 2328 
Q 1056 1369 1301 889 
Q 1547 409 2034 409 
Q 2525 409 2770 889 
Q 3016 1369 3016 2328 
Q 3016 3291 2770 3770 
Q 2525 4250 2034 4250 
z
M 2034 4750 
Q 2819 4750 3233 4129 
Q 3647 3509 3647 2328 
Q 3647 1150 3233 529 
Q 2819 -91 2034 -91 
Q 1250 -91 836 529 
Q 422 1150 422 2328 
Q 422 3509 836 4129 
Q 1250 4750 2034 4750 
z
" transform="scale(0.015625)"/>
       </defs>
       <use xlink:href="#DejaVuSans-2212"/>
       <use xlink:href="#DejaVuSans-31" transform="translate(83.789062 0)"/>
       <use xlink:href="#DejaVuSans-2e" transform="translate(147.412109 0)"/>
       <use xlink:href="#DejaVuSans-30" transform="translate(179.199219 0)"/>
      </g>
     </g>
    </g>
    <g id="xtick_3">
     <g id="line2d_3">
      <g>
       <use xlink:href="#m163d15edc1" x="167.31225" y="276.04" style="stroke: #000000; stroke-width: 0.8"/>
      </g>
     </g>
     <g id="text_3">
      <!-- −0.5 -->
      <g transform="translate(155.170844 290.638438) scale(0.1 -0.1)">
       <use xlink:href="#DejaVuSans-2212"/>
       <use xlink:href="#DejaVuSans-30" transform="translate(83.789062 0)"/>
       <use xlink:href="#DejaVuSans-2e" transform="translate(147.412109 0)"/>
       <use xlink:href="#DejaVuSans-35" transform="translate(179.199219 0)"/>
      </g>
     </g>
    </g>
    <g id="xtick_4">
     <g id="line2d_4">
      <g>
       <use xlink:href="#m163d15edc1" x="207.214496" y="276.04" style="stroke: #000000; stroke-width: 0.8"/>
      </g>
     </g>
     <g id="text_4">
      <!-- 0.0 -->
      <g transform="translate(199.262933 290.638438) scale(0.1 -0.1)">
       <use xlink:href="#DejaVuSans-30"/>
       <use xlink:href="#DejaVuSans-2e" transform="translate(63.623047 0)"/>
       <use xlink:href="#DejaVuSans-30" transform="translate(95.410156 0)"/>
      </g>
     </g>
    </g>
    <g id="xtick_5">
     <g id="line2d_5">
      <g>
       <use xlink:href="#m163d15edc1" x="247.116742" y="276.04" style="stroke: #000000; stroke-width: 0.8"/>
      </g>
     </g>
     <g id="text_5">
      <!-- 0.5 -->
      <g transform="translate(239.165179 290.638438) scale(0.1 -0.1)">
       <use xlink:href="#DejaVuSans-30"/>
       <use xlink:href="#DejaVuSans-2e" transform="translate(63.623047 0)"/>
       <use xlink:href="#DejaVuSans-35" transform="translate(95.410156 0)"/>
      </g>
     </g>
    </g>
    <g id="xtick_6">
     <g id="line2d_6">
      <g>
       <use xlink:href="#m163d15edc1" x="287.018987" y="276.04" style="stroke: #000000; stroke-width: 0.8"/>
      </g>
     </g>
     <g id="text_6">
      <!-- 1.0 -->
      <g transform="translate(279.067425 290.638438) scale(0.1 -0.1)">
       <use xlink:href="#DejaVuSans-31"/>
       <use xlink:href="#DejaVuSans-2e" transform="translate(63.623047 0)"/>
       <use xlink:href="#DejaVuSans-30" transform="translate(95.410156 0)"/>
      </g>
     </g>
    </g>
    <g id="xtick_7">
     <g id="line2d_7">
      <g>
       <use xlink:href="#m163d15edc1" x="326.921233" y="276.04" style="stroke: #000000; stroke-width: 0.8"/>
      </g>
     </g>
     <g id="text_7">
      <!-- 1.5 -->
      <g transform="translate(318.969671 290.638438) scale(0.1 -0.1)">
       <use xlink:href="#DejaVuSans-31"/>
       <use xlink:href="#DejaVuSans-2e" transform="translate(63.623047 0)"/>
       <use xlink:href="#DejaVuSans-35" transform="translate(95.410156 0)"/>
      </g>
     </g>
    </g>
    <g id="xtick_8">
     <g id="line2d_8">
      <g>
       <use xlink:href="#m163d15edc1" x="366.823479" y="276.04" style="stroke: #000000; stroke-width: 0.8"/>
      </g>
     </g>
     <g id="text_8">
      <!-- 2.0 -->
      <g transform="translate(358.871917 290.638438) scale(0.1 -0.1)">
       <defs>
        <path id="DejaVuSans-32" d="M 1228 531 
L 3431 531 
L 3431 0 
L 469 0 
L 469 531 
Q 828 903 1448 1529 
Q 2069 2156 2228 2338 
Q 2531 2678 2651 2914 
Q 2772 3150 2772 3378 
Q 2772 3750 2511 3984 
Q 2250 4219 1831 4219 
Q 1534 4219 1204 4116 
Q 875 4013 500 3803 
L 500 4441 
Q 881 4594 1212 4672 
Q 1544 4750 1819 4750 
Q 2544 4750 2975 4387 
Q 3406 4025 3406 3419 
Q 3406 3131 3298 2873 
Q 3191 2616 2906 2266 
Q 2828 2175 2409 1742 
Q 1991 1309 1228 531 
z
" transform="scale(0.015625)"/>
       </defs>
       <use xlink:href="#DejaVuSans-32"/>
       <use xlink:href="#DejaVuSans-2e" transform="translate(63.623047 0)"/>
       <use xlink:href="#DejaVuSans-30" transform="translate(95.410156 0)"/>
      </g>
     </g>
    </g>
    <g id="xtick_9">
     <g id="line2d_9">
      <g>
       <use xlink:href="#m163d15edc1" x="406.725725" y="276.04" style="stroke: #000000; stroke-width: 0.8"/>
      </g>
     </g>
     <g id="text_9">
      <!-- 2.5 -->
      <g transform="translate(398.774163 290.638438) scale(0.1 -0.1)">
       <use xlink:href="#DejaVuSans-32"/>
       <use xlink:href="#DejaVuSans-2e" transform="translate(63.623047 0)"/>
       <use xlink:href="#DejaVuSans-35" transform="translate(95.410156 0)"/>
      </g>
     </g>
    </g>
    <g id="text_10">
     <!-- x1 -->
     <g transform="translate(235.504375 310.316563) scale(0.1 -0.1)">
      <defs>
       <path id="DejaVuSans-78" d="M 3513 3500 
L 2247 1797 
L 3578 0 
L 2900 0 
L 1881 1375 
L 863 0 
L 184 0 
L 1544 1831 
L 300 3500 
L 978 3500 
L 1906 2253 
L 2834 3500 
L 3513 3500 
z
" transform="scale(0.015625)"/>
      </defs>
      <use xlink:href="#DejaVuSans-78"/>
      <use xlink:href="#DejaVuSans-31" transform="translate(59.179688 0)"/>
     </g>
    </g>
   </g>
   <g id="matplotlib.axis_2">
    <g id="ytick_1">
     <g id="line2d_10">
      <defs>
       <path id="meb788ec7be" d="M 0 0 
L -3.5 0 
" style="stroke: #000000; stroke-width: 0.8"/>
      </defs>
      <g>
       <use xlink:href="#meb788ec7be" x="62.09" y="273.415093" style="stroke: #000000; stroke-width: 0.8"/>
      </g>
     </g>
     <g id="text_11">
      <!-- −1.5 -->
      <g transform="translate(30.807188 277.214312) scale(0.1 -0.1)">
       <use xlink:href="#DejaVuSans-2212"/>
       <use xlink:href="#DejaVuSans-31" transform="translate(83.789062 0)"/>
       <use xlink:href="#DejaVuSans-2e" transform="translate(147.412109 0)"/>
       <use xlink:href="#DejaVuSans-35" transform="translate(179.199219 0)"/>
      </g>
     </g>
    </g>
    <g id="ytick_2">
     <g id="line2d_11">
      <g>
       <use xlink:href="#meb788ec7be" x="62.09" y="236.653826" style="stroke: #000000; stroke-width: 0.8"/>
      </g>
     </g>
     <g id="text_12">
      <!-- −1.0 -->
      <g transform="translate(30.807188 240.453045) scale(0.1 -0.1)">
       <use xlink:href="#DejaVuSans-2212"/>
       <use xlink:href="#DejaVuSans-31" transform="translate(83.789062 0)"/>
       <use xlink:href="#DejaVuSans-2e" transform="translate(147.412109 0)"/>
       <use xlink:href="#DejaVuSans-30" transform="translate(179.199219 0)"/>
      </g>
     </g>
    </g>
    <g id="ytick_3">
     <g id="line2d_12">
      <g>
       <use xlink:href="#meb788ec7be" x="62.09" y="199.892558" style="stroke: #000000; stroke-width: 0.8"/>
      </g>
     </g>
     <g id="text_13">
      <!-- −0.5 -->
      <g transform="translate(30.807188 203.691777) scale(0.1 -0.1)">
       <use xlink:href="#DejaVuSans-2212"/>
       <use xlink:href="#DejaVuSans-30" transform="translate(83.789062 0)"/>
       <use xlink:href="#DejaVuSans-2e" transform="translate(147.412109 0)"/>
       <use xlink:href="#DejaVuSans-35" transform="translate(179.199219 0)"/>
      </g>
     </g>
    </g>
    <g id="ytick_4">
     <g id="line2d_13">
      <g>
       <use xlink:href="#meb788ec7be" x="62.09" y="163.13129" style="stroke: #000000; stroke-width: 0.8"/>
      </g>
     </g>
     <g id="text_14">
      <!-- 0.0 -->
      <g transform="translate(39.186875 166.930509) scale(0.1 -0.1)">
       <use xlink:href="#DejaVuSans-30"/>
       <use xlink:href="#DejaVuSans-2e" transform="translate(63.623047 0)"/>
       <use xlink:href="#DejaVuSans-30" transform="translate(95.410156 0)"/>
      </g>
     </g>
    </g>
    <g id="ytick_5">
     <g id="line2d_14">
      <g>
       <use xlink:href="#meb788ec7be" x="62.09" y="126.370023" style="stroke: #000000; stroke-width: 0.8"/>
      </g>
     </g>
     <g id="text_15">
      <!-- 0.5 -->
      <g transform="translate(39.186875 130.169242) scale(0.1 -0.1)">
       <use xlink:href="#DejaVuSans-30"/>
       <use xlink:href="#DejaVuSans-2e" transform="translate(63.623047 0)"/>
       <use xlink:href="#DejaVuSans-35" transform="translate(95.410156 0)"/>
      </g>
     </g>
    </g>
    <g id="ytick_6">
     <g id="line2d_15">
      <g>
       <use xlink:href="#meb788ec7be" x="62.09" y="89.608755" style="stroke: #000000; stroke-width: 0.8"/>
      </g>
     </g>
     <g id="text_16">
      <!-- 1.0 -->
      <g transform="translate(39.186875 93.407974) scale(0.1 -0.1)">
       <use xlink:href="#DejaVuSans-31"/>
       <use xlink:href="#DejaVuSans-2e" transform="translate(63.623047 0)"/>
       <use xlink:href="#DejaVuSans-30" transform="translate(95.410156 0)"/>
      </g>
     </g>
    </g>
    <g id="ytick_7">
     <g id="line2d_16">
      <g>
       <use xlink:href="#meb788ec7be" x="62.09" y="52.847487" style="stroke: #000000; stroke-width: 0.8"/>
      </g>
     </g>
     <g id="text_17">
      <!-- 1.5 -->
      <g transform="translate(39.186875 56.646706) scale(0.1 -0.1)">
       <use xlink:href="#DejaVuSans-31"/>
       <use xlink:href="#DejaVuSans-2e" transform="translate(63.623047 0)"/>
       <use xlink:href="#DejaVuSans-35" transform="translate(95.410156 0)"/>
      </g>
     </g>
    </g>
    <g id="ytick_8">
     <g id="line2d_17">
      <g>
       <use xlink:href="#meb788ec7be" x="62.09" y="16.08622" style="stroke: #000000; stroke-width: 0.8"/>
      </g>
     </g>
     <g id="text_18">
      <!-- 2.0 -->
      <g transform="translate(39.186875 19.885439) scale(0.1 -0.1)">
       <use xlink:href="#DejaVuSans-32"/>
       <use xlink:href="#DejaVuSans-2e" transform="translate(63.623047 0)"/>
       <use xlink:href="#DejaVuSans-30" transform="translate(95.410156 0)"/>
      </g>
     </g>
    </g>
    <g id="text_19">
     <!-- x2 -->
     <g transform="translate(18.7275 149.560625) rotate(-90) scale(0.1 -0.1)">
      <use xlink:href="#DejaVuSans-78"/>
      <use xlink:href="#DejaVuSans-32" transform="translate(59.179688 0)"/>
     </g>
    </g>
   </g>
   <g id="QuadContourSet_1">
    <path d="M 352.025135 10.8 
L 347.795248 30.792965 
L 344.773818 44.121608 
L 341.798794 56.302954 
L 338.609606 68.113166 
L 336.232948 76.110352 
L 333.603357 84.107538 
L 331.184022 90.771859 
L 329.166784 95.82433 
L 326.677511 101.434774 
L 324.03902 106.766231 
L 322.581493 109.43196 
L 320.208586 113.430553 
L 318.453206 116.096281 
L 317.505436 117.429146 
L 315.490375 120.094874 
L 313.251237 122.760603 
L 312.014011 124.093467 
L 310.701489 125.426332 
L 307.73733 128.09206 
L 306.028137 129.424925 
L 304.120026 130.757789 
L 303.902764 130.905826 
L 301.927 132.090653 
L 299.284008 133.423518 
L 296.684472 134.497008 
L 293.075327 135.571846 
L 289.466181 136.225 
L 285.857035 136.496695 
L 282.247889 136.421801 
L 278.638744 136.034275 
L 275.029598 135.36883 
L 271.420452 134.454978 
L 267.811307 133.325269 
L 264.202161 132.011698 
L 258.788442 129.764158 
L 251.570151 126.404092 
L 228.110704 115.047784 
L 222.696985 112.764194 
L 217.283266 110.723704 
L 211.869548 108.97956 
L 208.260402 107.997338 
L 204.651256 107.180066 
L 201.042111 106.535097 
L 197.432965 106.080725 
L 193.823819 105.828315 
L 190.214673 105.797052 
L 186.605528 106.00712 
L 182.996382 106.479844 
L 179.387236 107.247569 
L 175.77809 108.342956 
L 172.168945 109.817194 
L 170.267925 110.764824 
L 167.972876 112.097688 
L 165.975353 113.430553 
L 164.209726 114.763417 
L 162.627041 116.096281 
L 161.190138 117.429146 
L 158.708162 120.094874 
L 156.597272 122.760603 
L 154.788577 125.426332 
L 153.227005 128.09206 
L 151.868199 130.757789 
L 150.159545 134.756382 
L 148.709497 138.971442 
L 147.686118 142.753568 
L 146.817431 146.752161 
L 146.176603 150.750754 
L 145.713273 154.749347 
L 145.35009 160.080804 
L 145.250863 165.412261 
L 145.386584 170.743719 
L 145.729114 176.075176 
L 146.407169 182.739497 
L 147.334242 189.403819 
L 148.721784 197.401005 
L 150.669351 206.731055 
L 153.219252 217.39397 
L 156.349344 229.389749 
L 165.633579 264.044221 
L 168.203044 274.707136 
L 168.504105 276.04 
L 168.504105 276.04 
" clip-path="url(#p4659c57853)" style="fill: none; stroke-dasharray: 3.7,1.6; stroke-dashoffset: 0; stroke: #000000"/>
    <path d="M 356.892123 10.8 
L 352.292877 37.457286 
L 348.594596 57.450251 
L 345.608605 72.111759 
L 343.517357 81.441809 
L 340.861152 92.104724 
L 338.63935 100.10191 
L 336.589143 106.766231 
L 334.784589 112.097688 
L 333.313905 116.096281 
L 331.185451 121.427739 
L 329.426493 125.426332 
L 327.508183 129.424925 
L 325.557638 133.133193 
L 323.030752 137.422111 
L 320.386198 141.420704 
L 318.339347 144.186512 
L 315.032888 148.085025 
L 312.925628 150.268873 
L 310.96512 152.083618 
L 307.654564 154.749347 
L 305.707337 156.099994 
L 302.098191 158.196234 
L 298.489045 159.816196 
L 294.879899 160.9996 
L 291.270754 161.780474 
L 287.661608 162.187824 
L 284.052462 162.247384 
L 280.443317 161.982758 
L 276.822867 161.413668 
L 273.225025 160.570751 
L 269.615879 159.46857 
L 266.006734 158.133757 
L 261.304197 156.082211 
L 256.983869 153.950433 
L 251.130948 150.750754 
L 244.309059 146.752161 
L 229.915276 138.258289 
L 224.501558 135.332915 
L 219.087839 132.684498 
L 214.612113 130.757789 
L 211.069051 129.424925 
L 208.260402 128.499335 
L 204.651256 127.506297 
L 201.042111 126.744119 
L 197.432965 126.245224 
L 193.823819 126.026861 
L 190.214673 126.123239 
L 186.605528 126.571836 
L 184.800955 126.945335 
L 181.191809 128.027743 
L 179.387236 128.761977 
L 177.582663 129.634003 
L 175.638461 130.757789 
L 173.701849 132.090653 
L 172.037311 133.423518 
L 170.364372 134.977525 
L 168.171698 137.422111 
L 166.208689 140.087839 
L 164.581164 142.753568 
L 163.14608 145.571743 
L 161.588598 149.417889 
L 160.72435 152.083618 
L 159.681234 156.082211 
L 159.15272 158.74794 
L 158.55808 162.746533 
L 158.168021 166.745126 
L 157.962743 170.743719 
L 157.943597 176.075176 
L 158.176239 181.406633 
L 158.620877 186.73809 
L 159.41955 193.402412 
L 160.245233 198.733869 
L 161.702617 206.731055 
L 163.678635 216.061106 
L 166.800569 229.389749 
L 171.957925 250.715578 
L 174.935497 264.044221 
L 177.046254 274.707136 
L 177.288571 276.04 
L 177.288571 276.04 
" clip-path="url(#p4659c57853)" style="fill: none; stroke: #000000; stroke-width: 2"/>
    <path d="M 361.443866 10.8 
L 353.466893 66.780302 
L 351.085106 81.441809 
L 349.159772 92.104724 
L 347.564385 100.10191 
L 345.809229 108.099095 
L 344.193122 114.763417 
L 342.410509 121.427739 
L 340.427528 128.09206 
L 338.665629 133.423518 
L 336.72265 138.754975 
L 335.12134 142.753568 
L 333.382619 146.752161 
L 331.484769 150.750754 
L 329.403109 154.749347 
L 327.362211 158.315643 
L 324.513335 162.746533 
L 321.948492 166.318556 
L 319.441456 169.410854 
L 316.534774 172.627913 
L 312.919248 176.075176 
L 309.316482 178.985392 
L 305.707337 181.434673 
L 302.098191 183.460259 
L 298.489045 185.101154 
L 294.879899 186.385287 
L 291.270754 187.337065 
L 287.661608 187.977334 
L 284.052462 188.321416 
L 280.443317 188.384779 
L 276.834171 188.180245 
L 273.225025 187.718944 
L 269.615879 187.012783 
L 266.006734 186.073107 
L 262.397588 184.91247 
L 258.788442 183.544861 
L 253.93693 181.406633 
L 249.765578 179.334106 
L 243.828149 176.075176 
L 237.056867 172.076583 
L 225.842339 165.412261 
L 220.892412 162.708263 
L 217.283266 160.927032 
L 213.674121 159.347868 
L 210.064975 158.017157 
L 206.455829 156.982465 
L 202.846683 156.297348 
L 200.516987 156.082211 
L 199.237538 156.027789 
L 197.357111 156.082211 
L 195.628392 156.262465 
L 193.823819 156.605272 
L 191.251523 157.415075 
L 190.214673 157.837153 
L 188.410101 158.785495 
L 186.534046 160.080804 
L 184.800955 161.613995 
L 182.69601 164.079397 
L 180.98502 166.745126 
L 179.387236 170.10588 
L 178.679222 172.076583 
L 177.884993 174.742312 
L 177.280821 177.40804 
L 176.657075 181.406633 
L 176.289157 185.405226 
L 176.136547 189.403819 
L 176.2068 194.735276 
L 176.523854 200.066734 
L 177.175747 206.731055 
L 178.04803 213.395377 
L 179.724765 224.058291 
L 185.093305 256.047035 
L 186.406259 265.377085 
L 187.670641 276.04 
L 187.670641 276.04 
" clip-path="url(#p4659c57853)" style="fill: none; stroke-dasharray: 3.7,1.6; stroke-dashoffset: 0; stroke: #000000"/>
   </g>
   <g id="patch_3">
    <path d="M 62.09 276.04 
L 62.09 10.8 
" style="fill: none; stroke: #000000; stroke-width: 0.8; stroke-linejoin: miter; stroke-linecap: square"/>
   </g>
   <g id="patch_4">
    <path d="M 421.2 276.04 
L 421.2 10.8 
" style="fill: none; stroke: #000000; stroke-width: 0.8; stroke-linejoin: miter; stroke-linecap: square"/>
   </g>
   <g id="patch_5">
    <path d="M 62.09 276.04 
L 421.2 276.04 
" style="fill: none; stroke: #000000; stroke-width: 0.8; stroke-linejoin: miter; stroke-linecap: square"/>
   </g>
   <g id="patch_6">
    <path d="M 62.09 10.8 
L 421.2 10.8 
" style="fill: none; stroke: #000000; stroke-width: 0.8; stroke-linejoin: miter; stroke-linecap: square"/>
   </g>
   <g id="legend_1">
    <g id="patch_7">
     <path d="M 337.31875 48.15625 
L 414.2 48.15625 
Q 416.2 48.15625 416.2 46.15625 
L 416.2 17.8 
Q 416.2 15.8 414.2 15.8 
L 337.31875 15.8 
Q 335.31875 15.8 335.31875 17.8 
L 335.31875 46.15625 
Q 335.31875 48.15625 337.31875 48.15625 
z
" style="fill: #ffffff; opacity: 0.8; stroke: #cccccc; stroke-linejoin: miter"/>
    </g>
    <g id="PathCollection_4">
     <g>
      <use xlink:href="#mc2c1f43f2d" x="349.31875" y="24.773438" style="fill: #ff0000; stroke: #ff0000"/>
     </g>
    </g>
    <g id="text_20">
     <!-- Positive -->
     <g transform="translate(367.31875 27.398438) scale(0.1 -0.1)">
      <defs>
       <path id="DejaVuSans-50" d="M 1259 4147 
L 1259 2394 
L 2053 2394 
Q 2494 2394 2734 2622 
Q 2975 2850 2975 3272 
Q 2975 3691 2734 3919 
Q 2494 4147 2053 4147 
L 1259 4147 
z
M 628 4666 
L 2053 4666 
Q 2838 4666 3239 4311 
Q 3641 3956 3641 3272 
Q 3641 2581 3239 2228 
Q 2838 1875 2053 1875 
L 1259 1875 
L 1259 0 
L 628 0 
L 628 4666 
z
" transform="scale(0.015625)"/>
       <path id="DejaVuSans-6f" d="M 1959 3097 
Q 1497 3097 1228 2736 
Q 959 2375 959 1747 
Q 959 1119 1226 758 
Q 1494 397 1959 397 
Q 2419 397 2687 759 
Q 2956 1122 2956 1747 
Q 2956 2369 2687 2733 
Q 2419 3097 1959 3097 
z
M 1959 3584 
Q 2709 3584 3137 3096 
Q 3566 2609 3566 1747 
Q 3566 888 3137 398 
Q 2709 -91 1959 -91 
Q 1206 -91 779 398 
Q 353 888 353 1747 
Q 353 2609 779 3096 
Q 1206 3584 1959 3584 
z
" transform="scale(0.015625)"/>
       <path id="DejaVuSans-73" d="M 2834 3397 
L 2834 2853 
Q 2591 2978 2328 3040 
Q 2066 3103 1784 3103 
Q 1356 3103 1142 2972 
Q 928 2841 928 2578 
Q 928 2378 1081 2264 
Q 1234 2150 1697 2047 
L 1894 2003 
Q 2506 1872 2764 1633 
Q 3022 1394 3022 966 
Q 3022 478 2636 193 
Q 2250 -91 1575 -91 
Q 1294 -91 989 -36 
Q 684 19 347 128 
L 347 722 
Q 666 556 975 473 
Q 1284 391 1588 391 
Q 1994 391 2212 530 
Q 2431 669 2431 922 
Q 2431 1156 2273 1281 
Q 2116 1406 1581 1522 
L 1381 1569 
Q 847 1681 609 1914 
Q 372 2147 372 2553 
Q 372 3047 722 3315 
Q 1072 3584 1716 3584 
Q 2034 3584 2315 3537 
Q 2597 3491 2834 3397 
z
" transform="scale(0.015625)"/>
       <path id="DejaVuSans-69" d="M 603 3500 
L 1178 3500 
L 1178 0 
L 603 0 
L 603 3500 
z
M 603 4863 
L 1178 4863 
L 1178 4134 
L 603 4134 
L 603 4863 
z
" transform="scale(0.015625)"/>
       <path id="DejaVuSans-74" d="M 1172 4494 
L 1172 3500 
L 2356 3500 
L 2356 3053 
L 1172 3053 
L 1172 1153 
Q 1172 725 1289 603 
Q 1406 481 1766 481 
L 2356 481 
L 2356 0 
L 1766 0 
Q 1100 0 847 248 
Q 594 497 594 1153 
L 594 3053 
L 172 3053 
L 172 3500 
L 594 3500 
L 594 4494 
L 1172 4494 
z
" transform="scale(0.015625)"/>
       <path id="DejaVuSans-76" d="M 191 3500 
L 800 3500 
L 1894 563 
L 2988 3500 
L 3597 3500 
L 2284 0 
L 1503 0 
L 191 3500 
z
" transform="scale(0.015625)"/>
       <path id="DejaVuSans-65" d="M 3597 1894 
L 3597 1613 
L 953 1613 
Q 991 1019 1311 708 
Q 1631 397 2203 397 
Q 2534 397 2845 478 
Q 3156 559 3463 722 
L 3463 178 
Q 3153 47 2828 -22 
Q 2503 -91 2169 -91 
Q 1331 -91 842 396 
Q 353 884 353 1716 
Q 353 2575 817 3079 
Q 1281 3584 2069 3584 
Q 2775 3584 3186 3129 
Q 3597 2675 3597 1894 
z
M 3022 2063 
Q 3016 2534 2758 2815 
Q 2500 3097 2075 3097 
Q 1594 3097 1305 2825 
Q 1016 2553 972 2059 
L 3022 2063 
z
" transform="scale(0.015625)"/>
      </defs>
      <use xlink:href="#DejaVuSans-50"/>
      <use xlink:href="#DejaVuSans-6f" transform="translate(56.677734 0)"/>
      <use xlink:href="#DejaVuSans-73" transform="translate(117.859375 0)"/>
      <use xlink:href="#DejaVuSans-69" transform="translate(169.958984 0)"/>
      <use xlink:href="#DejaVuSans-74" transform="translate(197.742188 0)"/>
      <use xlink:href="#DejaVuSans-69" transform="translate(236.951172 0)"/>
      <use xlink:href="#DejaVuSans-76" transform="translate(264.734375 0)"/>
      <use xlink:href="#DejaVuSans-65" transform="translate(323.914062 0)"/>
     </g>
    </g>
    <g id="PathCollection_5">
     <g>
      <use xlink:href="#m7c71150a2f" x="349.31875" y="39.451563" style="fill: #0000ff; stroke: #0000ff; stroke-width: 1.5"/>
     </g>
    </g>
    <g id="text_21">
     <!-- Negative -->
     <g transform="translate(367.31875 42.076563) scale(0.1 -0.1)">
      <defs>
       <path id="DejaVuSans-4e" d="M 628 4666 
L 1478 4666 
L 3547 763 
L 3547 4666 
L 4159 4666 
L 4159 0 
L 3309 0 
L 1241 3903 
L 1241 0 
L 628 0 
L 628 4666 
z
" transform="scale(0.015625)"/>
       <path id="DejaVuSans-67" d="M 2906 1791 
Q 2906 2416 2648 2759 
Q 2391 3103 1925 3103 
Q 1463 3103 1205 2759 
Q 947 2416 947 1791 
Q 947 1169 1205 825 
Q 1463 481 1925 481 
Q 2391 481 2648 825 
Q 2906 1169 2906 1791 
z
M 3481 434 
Q 3481 -459 3084 -895 
Q 2688 -1331 1869 -1331 
Q 1566 -1331 1297 -1286 
Q 1028 -1241 775 -1147 
L 775 -588 
Q 1028 -725 1275 -790 
Q 1522 -856 1778 -856 
Q 2344 -856 2625 -561 
Q 2906 -266 2906 331 
L 2906 616 
Q 2728 306 2450 153 
Q 2172 0 1784 0 
Q 1141 0 747 490 
Q 353 981 353 1791 
Q 353 2603 747 3093 
Q 1141 3584 1784 3584 
Q 2172 3584 2450 3431 
Q 2728 3278 2906 2969 
L 2906 3500 
L 3481 3500 
L 3481 434 
z
" transform="scale(0.015625)"/>
       <path id="DejaVuSans-61" d="M 2194 1759 
Q 1497 1759 1228 1600 
Q 959 1441 959 1056 
Q 959 750 1161 570 
Q 1363 391 1709 391 
Q 2188 391 2477 730 
Q 2766 1069 2766 1631 
L 2766 1759 
L 2194 1759 
z
M 3341 1997 
L 3341 0 
L 2766 0 
L 2766 531 
Q 2569 213 2275 61 
Q 1981 -91 1556 -91 
Q 1019 -91 701 211 
Q 384 513 384 1019 
Q 384 1609 779 1909 
Q 1175 2209 1959 2209 
L 2766 2209 
L 2766 2266 
Q 2766 2663 2505 2880 
Q 2244 3097 1772 3097 
Q 1472 3097 1187 3025 
Q 903 2953 641 2809 
L 641 3341 
Q 956 3463 1253 3523 
Q 1550 3584 1831 3584 
Q 2591 3584 2966 3190 
Q 3341 2797 3341 1997 
z
" transform="scale(0.015625)"/>
      </defs>
      <use xlink:href="#DejaVuSans-4e"/>
      <use xlink:href="#DejaVuSans-65" transform="translate(74.804688 0)"/>
      <use xlink:href="#DejaVuSans-67" transform="translate(136.328125 0)"/>
      <use xlink:href="#DejaVuSans-61" transform="translate(199.804688 0)"/>
      <use xlink:href="#DejaVuSans-74" transform="translate(261.083984 0)"/>
      <use xlink:href="#DejaVuSans-69" transform="translate(300.292969 0)"/>
      <use xlink:href="#DejaVuSans-76" transform="translate(328.076172 0)"/>
      <use xlink:href="#DejaVuSans-65" transform="translate(387.255859 0)"/>
     </g>
    </g>
   </g>
  </g>
 </g>
 <defs>
  <clipPath id="p4659c57853">
   <rect x="62.09" y="10.8" width="359.11" height="265.24"/>
  </clipPath>
 </defs>
</svg>
